<?xml version="1.0" encoding="UTF-8" standalone="no"?>
<!-- Created with Inkscape (http://www.inkscape.org/) -->

<svg
   xmlns:dc="http://purl.org/dc/elements/1.1/"
   xmlns:cc="http://creativecommons.org/ns#"
   xmlns:rdf="http://www.w3.org/1999/02/22-rdf-syntax-ns#"
   xmlns:svg="http://www.w3.org/2000/svg"
   xmlns="http://www.w3.org/2000/svg"
   xmlns:sodipodi="http://sodipodi.sourceforge.net/DTD/sodipodi-0.dtd"
   xmlns:inkscape="http://www.inkscape.org/namespaces/inkscape"
   width="320"
   height="320"
   id="svg3923"
   version="1.1"
   inkscape:version="0.48.4 r9939"
   sodipodi:docname="New document 5">
  <defs
     id="defs3925" />
  <sodipodi:namedview
     id="base"
     pagecolor="#ffffff"
     bordercolor="#666666"
     borderopacity="1.0"
     inkscape:pageopacity="0.0"
     inkscape:pageshadow="2"
     inkscape:zoom="1.979899"
     inkscape:cx="39.877354"
     inkscape:cy="156.88018"
     inkscape:document-units="px"
     inkscape:current-layer="layer1"
     showgrid="false"
     inkscape:window-width="1920"
     inkscape:window-height="1017"
     inkscape:window-x="-8"
     inkscape:window-y="-8"
     inkscape:window-maximized="1" />
  <metadata
     id="metadata3928">
    <rdf:RDF>
      <cc:Work
         rdf:about="">
        <dc:format>image/svg+xml</dc:format>
        <dc:type
           rdf:resource="http://purl.org/dc/dcmitype/StillImage" />
        <dc:title></dc:title>
      </cc:Work>
    </rdf:RDF>
  </metadata>
  <g
     inkscape:label="Layer 1"
     inkscape:groupmode="layer"
     id="layer1"
     transform="translate(0,-732.36218)">
    <path
       id="path4511"
       transform="translate(0,732.36218)"
       style="fill:#000000;stroke:#323232;stroke-width:4;stroke-linecap:butt;stroke-linejoin:miter;stroke-opacity:1;fill-opacity:1;stroke-miterlimit:4;stroke-dasharray:none"
       d="m 25.357143,120.35714 c 0,0 10.087985,7.60377 16.071428,8.92857 4.89421,1.08363 10.03715,-0.36597 15.000001,-1.07142 25.313084,-3.59816 49.583278,-13.29843 74.999998,-16.07143 18.93563,-2.06591 38.1917,-2.27538 57.14286,-0.35715 24.08928,2.43831 47.09698,11.61411 71.07143,15 6.5004,0.91805 13.23955,2.87625 19.64285,1.42858 C 287.0343,126.46248 300,116.42857 300,116.42857 l -0.35283,64.28572 c 0,0 -4.07509,-12.41868 -9.28571,-15.35715 -6.4291,-3.62562 -15.01226,-1.90607 -22.14286,0 -8.75887,2.34132 -17.81792,6.56453 -23.57143,13.57143 -4.94532,6.02265 -7.40767,14.35056 -7.5,22.14286 -0.11822,9.97731 2.17549,21.22592 8.92858,28.57143 4.69805,5.1102 12.37798,7.17216 19.28571,7.85714 5.66909,0.56215 16.78571,-3.21429 16.78571,-3.21429 L 235.71429,285 c 0,0 3.18557,-12.61834 0.35714,-17.85714 -2.87164,-5.31883 -10.99609,-8.20809 -17.5,-9.64286 -21.58939,-4.76264 -39.68209,-5.45174 -59.64286,-5.35714 -19.26086,0.0912 -39.15846,1.26262 -57.5,5.71428 -6.270721,1.52196 -14.377533,3.91396 -16.785713,9.64286 -2.329113,5.5408 2.5,17.85714 2.5,17.85714 L 38.214286,234.28571 c 0,0 11.116619,3.77644 16.785714,3.21429 6.90773,-0.68498 14.587655,-2.74694 19.285714,-7.85714 6.753085,-7.34551 9.046791,-18.59412 8.928572,-28.57143 -0.09233,-7.7923 -2.554681,-16.12021 -7.5,-22.14286 -5.753509,-7.0069 -14.812561,-11.23011 -23.571429,-13.57143 -7.130593,-1.90607 -15.713757,-3.62562 -22.142857,0 -5.210619,2.93847 -9.285714,15.35715 -9.285714,15.35715 z"
       inkscape:connector-curvature="0"
       sodipodi:nodetypes="cssssssccssssssccsssssccsssssscc" />
    <path
       style="fill:#505050;stroke:#323232;stroke-width:4;stroke-linecap:butt;stroke-linejoin:miter;stroke-opacity:1;fill-opacity:1;stroke-miterlimit:4;stroke-dasharray:none"
       d="m 159.64286,135.71429 c 11.35535,-0.28434 28.40183,7.21377 28.57143,18.57142 0.16222,10.86348 -15.92629,18.23362 -26.78572,18.57143 -11.26453,0.35041 -28.46437,-6.23958 -28.92857,-17.5 -0.46002,-11.15881 15.97807,-19.36328 27.14286,-19.64285 z"
       id="path4513"
       inkscape:connector-curvature="0"
       transform="translate(0,732.36218)"
       sodipodi:nodetypes="aaaaa" />
    <path
       style="fill:#000000;fill-opacity:1;stroke:#323232;stroke-width:5.80254269;stroke-linecap:round;stroke-linejoin:miter;stroke-miterlimit:4;stroke-opacity:1;stroke-dasharray:none;stroke-dashoffset:0"
       d="M 160 2.90625 C 73.236768 2.90625 2.90625 73.236769 2.90625 160 C 2.90625 246.76323 73.236768 317.09375 160 317.09375 C 246.76323 317.09375 317.09375 246.76323 317.09375 160 C 317.09375 73.236769 246.76323 2.90625 160 2.90625 z M 160 32.09375 C 230.63402 32.09375 287.90625 89.365984 287.90625 160 C 287.90625 230.63402 230.63402 287.90625 160 287.90625 C 89.365982 287.90625 32.09375 230.63402 32.09375 160 C 32.09375 89.365984 89.365982 32.09375 160 32.09375 z "
       transform="translate(0,732.36218)"
       id="path3931" />
  </g>
</svg>
